<svg width="16" height="16" viewBox="0 0 16 16" fill="none" xmlns="http://www.w3.org/2000/svg">
<path d="M8.83333 4.66666C10.5858 4.66666 11.3333 5.41416 11.3333 7.16666H13C13 4.47916 11.5208 3 8.83333 3V4.66666ZM11.685 9.2025C11.5249 9.05696 11.3144 8.97933 11.0982 8.98602C10.8819 8.99271 10.6767 9.08318 10.5258 9.23833L8.53166 11.2892C8.05166 11.1975 7.08666 10.8967 6.09333 9.90583C5.09999 8.91166 4.79916 7.94416 4.70999 7.4675L6.75916 5.4725C6.9145 5.32177 7.00511 5.11651 7.01179 4.90017C7.01848 4.68382 6.94073 4.47336 6.79499 4.31333L3.71582 0.927496C3.57003 0.76696 3.36739 0.669583 3.15095 0.656045C2.93451 0.642508 2.72132 0.713878 2.55666 0.854996L0.748324 2.40583C0.60425 2.55043 0.518257 2.74287 0.506657 2.94666C0.494157 3.155 0.255824 8.09 4.08249 11.9183C7.42083 15.2558 11.6025 15.5 12.7542 15.5C12.9225 15.5 13.0258 15.495 13.0533 15.4933C13.2571 15.4819 13.4494 15.3955 13.5933 15.2508L15.1433 13.4417C15.2845 13.2771 15.3561 13.064 15.3427 12.8475C15.3293 12.6311 15.2321 12.4284 15.0717 12.2825L11.685 9.2025Z" fill="#4F5E7B"/>
</svg>
