<svg width="26" height="29" viewBox="0 0 26 29" fill="none" xmlns="http://www.w3.org/2000/svg">
<path d="M9.72527 3.36754L8.72441 3.03392V3.03392L9.72527 3.36754ZM8.95295 5.68452L9.38616 6.64648L9.80763 6.45667L9.95381 6.01814L8.95295 5.68452ZM7.23114 6.68038L7.01963 7.71396L7.47326 7.80679L7.84868 7.53576L7.23114 6.68038ZM4.83612 6.19028L5.04762 5.15669H5.04762L4.83612 6.19028ZM2.7031 7.14967L1.78945 6.62217L2.7031 7.14967ZM1.32571 9.53538L0.412056 9.00788L0.412055 9.00788L1.32571 9.53538ZM1.56136 11.8623L2.35071 11.1624H2.35071L1.56136 11.8623ZM3.18326 13.6914L4.23302 13.7964L4.27898 13.3369L3.97261 12.9914L3.18326 13.6914ZM3.18325 15.6789L3.97261 16.3788L4.27897 16.0333L4.23302 15.5739L3.18325 15.6789ZM1.56139 17.5079L2.35074 18.2078H2.35074L1.56139 17.5079ZM1.32574 19.8348L2.2394 19.3073L1.32574 19.8348ZM2.70313 22.2205L1.78948 22.748H1.78948L2.70313 22.2205ZM4.83615 23.1799L4.62464 22.1463H4.62464L4.83615 23.1799ZM7.23106 22.6898L7.84861 21.8345L7.47319 21.5634L7.01956 21.6562L7.23106 22.6898ZM8.95297 23.6858L9.95383 23.3521L9.80766 22.9136L9.38618 22.7238L8.95297 23.6858ZM9.72527 26.0027L8.72441 26.3363L9.72527 26.0027ZM16.2748 26.0027L15.2739 25.669H15.2739L16.2748 26.0027ZM17.0471 23.6857L16.6139 22.7238L16.1924 22.9136L16.0462 23.3521L17.0471 23.6857ZM18.769 22.6898L18.9805 21.6562L18.5269 21.5634L18.1515 21.8344L18.769 22.6898ZM21.1639 23.1799L21.3754 22.1463L21.1639 23.1799ZM23.2969 22.2205L22.3833 21.693L22.3833 21.693L23.2969 22.2205ZM24.6743 19.8348L23.7607 19.3073L24.6743 19.8348ZM24.4387 17.5078L25.2281 16.8079L24.4387 17.5078ZM22.8168 15.6788L21.767 15.5738L21.7211 16.0333L22.0274 16.3787L22.8168 15.6788ZM22.8168 13.6914L22.0274 12.9915L21.7211 13.337L21.767 13.7964L22.8168 13.6914ZM24.4387 11.8624L23.6494 11.1624L24.4387 11.8624ZM24.6744 9.53542L25.588 9.00792L25.588 9.00792L24.6744 9.53542ZM23.297 7.14971L24.2106 6.62221V6.62221L23.297 7.14971ZM21.164 6.19031L20.9525 5.15673L21.164 6.19031ZM18.7689 6.68042L18.1514 7.53579L18.5268 7.80683L18.9805 7.714L18.7689 6.68042ZM17.0471 5.68454L16.0463 6.01816L16.1924 6.45668L16.6139 6.64649L17.0471 5.68454ZM16.2748 3.36754L17.2757 3.03392L16.2748 3.36754ZM10.7261 3.70116C10.8548 3.31528 11.2159 3.055 11.6226 3.055V0.945C10.3077 0.945 9.14024 1.78644 8.72441 3.03392L10.7261 3.70116ZM9.95381 6.01814L10.7261 3.70116L8.72441 3.03392L7.95209 5.3509L9.95381 6.01814ZM7.84868 7.53576C8.32758 7.19002 8.84234 6.89138 9.38616 6.64648L8.51974 4.72257C7.84489 5.02648 7.20675 5.39678 6.6136 5.825L7.84868 7.53576ZM4.62461 7.22386L7.01963 7.71396L7.44265 5.6468L5.04762 5.15669L4.62461 7.22386ZM3.61676 7.67717C3.82014 7.32491 4.22611 7.14231 4.62461 7.22386L5.04762 5.15669C3.75935 4.89307 2.44693 5.48338 1.78945 6.62217L3.61676 7.67717ZM2.23937 10.0629L3.61676 7.67717L1.78945 6.62217L0.412056 9.00788L2.23937 10.0629ZM2.35071 11.1624C2.08084 10.858 2.03599 10.4151 2.23937 10.0629L0.412055 9.00788C-0.245426 10.1467 -0.100437 11.5784 0.772003 12.5623L2.35071 11.1624ZM3.97261 12.9914L2.35071 11.1624L0.772003 12.5623L2.3939 14.3913L3.97261 12.9914ZM4.18883 14.6851C4.18883 14.3848 4.20382 14.0883 4.23302 13.7964L2.1335 13.5864C2.09732 13.948 2.07883 14.3146 2.07883 14.6851H4.18883ZM4.23302 15.5739C4.20381 15.2819 4.18883 14.9854 4.18883 14.6851H2.07883C2.07883 15.0557 2.09732 15.4222 2.13349 15.7839L4.23302 15.5739ZM2.35074 18.2078L3.97261 16.3788L2.3939 14.9789L0.772033 16.8079L2.35074 18.2078ZM2.2394 19.3073C2.03602 18.955 2.08087 18.5122 2.35074 18.2078L0.772033 16.8079C-0.100407 17.7918 -0.245396 19.2235 0.412086 20.3623L2.2394 19.3073ZM3.61679 21.693L2.2394 19.3073L0.412086 20.3623L1.78948 22.748L3.61679 21.693ZM4.62464 22.1463C4.22614 22.2279 3.82017 22.0453 3.61679 21.693L1.78948 22.748C2.44696 23.8868 3.75938 24.4771 5.04765 24.2135L4.62464 22.1463ZM7.01956 21.6562L4.62464 22.1463L5.04765 24.2135L7.44257 23.7234L7.01956 21.6562ZM9.38618 22.7238C8.84233 22.4789 8.32754 22.1802 7.84861 21.8345L6.61352 23.5452C7.2067 23.9735 7.84488 24.3438 8.51977 24.6477L9.38618 22.7238ZM10.7261 25.669L9.95383 23.3521L7.95211 24.0194L8.72441 26.3363L10.7261 25.669ZM11.6226 26.3152C11.2159 26.3152 10.8548 26.0549 10.7261 25.669L8.72441 26.3363C9.14024 27.5838 10.3077 28.4252 11.6226 28.4252V26.3152ZM14.3774 26.3152H11.6226V28.4252H14.3774V26.3152ZM15.2739 25.669C15.1453 26.0549 14.7842 26.3152 14.3774 26.3152V28.4252C15.6924 28.4252 16.8598 27.5838 17.2757 26.3363L15.2739 25.669ZM16.0462 23.3521L15.2739 25.669L17.2757 26.3363L18.048 24.0194L16.0462 23.3521ZM18.1515 21.8344C17.6725 22.1802 17.1577 22.4789 16.6139 22.7238L17.4803 24.6477C18.1552 24.3438 18.7934 23.9734 19.3866 23.5452L18.1515 21.8344ZM21.3754 22.1463L18.9805 21.6562L18.5575 23.7234L20.9524 24.2135L21.3754 22.1463ZM22.3833 21.693C22.1799 22.0452 21.7739 22.2278 21.3754 22.1463L20.9524 24.2135C22.2407 24.4771 23.5531 23.8868 24.2106 22.748L22.3833 21.693ZM23.7607 19.3073L22.3833 21.693L24.2106 22.748L25.588 20.3623L23.7607 19.3073ZM23.6493 18.2078C23.9192 18.5121 23.9641 18.955 23.7607 19.3073L25.588 20.3623C26.2455 19.2235 26.1005 17.7917 25.2281 16.8079L23.6493 18.2078ZM22.0274 16.3787L23.6493 18.2078L25.2281 16.8079L23.6061 14.9788L22.0274 16.3787ZM21.8112 14.6851C21.8112 14.9854 21.7962 15.2818 21.767 15.5738L23.8666 15.7838C23.9027 15.4222 23.9212 15.0556 23.9212 14.6851H21.8112ZM21.767 13.7964C21.7962 14.0884 21.8112 14.3849 21.8112 14.6851H23.9212C23.9212 14.3146 23.9027 13.9481 23.8665 13.5865L21.767 13.7964ZM23.6494 11.1624L22.0274 12.9915L23.6061 14.3914L25.2281 12.5623L23.6494 11.1624ZM23.7607 10.0629C23.9641 10.4152 23.9192 10.8581 23.6494 11.1624L25.2281 12.5623C26.1005 11.5785 26.2455 10.1467 25.588 9.00792L23.7607 10.0629ZM22.3833 7.67721L23.7607 10.0629L25.588 9.00792L24.2106 6.62221L22.3833 7.67721ZM21.3755 7.22389C21.774 7.14235 22.1799 7.32494 22.3833 7.67721L24.2106 6.62221C23.5532 5.48342 22.2407 4.89311 20.9525 5.15673L21.3755 7.22389ZM18.9805 7.714L21.3755 7.22389L20.9525 5.15673L18.5574 5.64684L18.9805 7.714ZM16.6139 6.64649C17.1577 6.8914 17.6725 7.19004 18.1514 7.53579L19.3865 5.82504C18.7933 5.39681 18.1552 5.02651 17.4803 4.72259L16.6139 6.64649ZM15.2739 3.70116L16.0463 6.01816L18.048 5.35092L17.2757 3.03392L15.2739 3.70116ZM14.3774 3.055C14.7842 3.055 15.1453 3.31528 15.2739 3.70116L17.2757 3.03392C16.8598 1.78644 15.6924 0.945 14.3774 0.945V3.055ZM11.6226 3.055H14.3774V0.945H11.6226V3.055Z" fill="white"/>
<path fill-rule="evenodd" clip-rule="evenodd" d="M13 16.0945C13.7785 16.0945 14.4095 15.4635 14.4095 14.6851C14.4095 13.9066 13.7785 13.2756 13 13.2756C12.2216 13.2756 11.5906 13.9066 11.5906 14.6851C11.5906 15.4635 12.2216 16.0945 13 16.0945Z" stroke="white" stroke-width="2.11"/>
</svg>
